<svg viewBox="0 0 24 24" xmlns="http://www.w3.org/2000/svg" xmlns:xlink="http://www.w3.org/1999/xlink" overflow="hidden"><path d="M12 17C10.89 17 10 16.1 10 15 10 13.89 10.89 13 12 13 13.1046 13 14 13.8954 14 15 14 16.1046 13.1046 17 12 17M18 20 18 10 6 10 6 20 18 20M18 8C19.1046 8 20 8.89543 20 10L20 20C20 21.1046 19.1046 22 18 22L6 22C4.89 22 4 21.1 4 20L4 10C4 8.89 4.89 8 6 8L7 8 7 6C7 3.23858 9.23858 1 12 1 14.7614 1 17 3.23858 17 6L17 8 18 8M12 3C10.3431 3 9 4.34315 9 6L9 8 15 8 15 6C15 4.34315 13.6569 3 12 3Z" fill="#D9D9D9"/></svg>