<svg viewBox="0 0 24 24" xmlns="http://www.w3.org/2000/svg" xmlns:xlink="http://www.w3.org/1999/xlink" overflow="hidden"><path d="M20 11 23 11 23 13 20 13 20 11M1 11 4 11 4 13 1 13 1 11M13 1 13 4 11 4 11 1 13 1M4.92 3.5 7.05 5.64 5.63 7.05 3.5 4.93 4.92 3.5M16.95 5.63 19.07 3.5 20.5 4.93 18.37 7.05 16.95 5.63M12 6C15.3137 6 18 8.68629 18 12 18 14.22 16.79 16.16 15 17.2L15 19C15 19.5523 14.5523 20 14 20L10 20C9.44771 20 9 19.5523 9 19L9 17.2C7.21 16.16 6 14.22 6 12 6 8.68629 8.68629 6 12 6M14 21 14 22C14 22.5523 13.5523 23 13 23L11 23C10.4477 23 10 22.5523 10 22L10 21 14 21M11 18 13 18 13 15.87C14.73 15.43 16 13.86 16 12 16 9.79086 14.2091 8 12 8 9.79086 8 8 9.79086 8 12 8 13.86 9.27 15.43 11 15.87L11 18Z" fill="#D9D9D9"/></svg>