<svg viewBox="0 0 24 24" xmlns="http://www.w3.org/2000/svg" xmlns:xlink="http://www.w3.org/1999/xlink" overflow="hidden"><path d="M4 6 6 6 6 18 4 18 4 6M7 6 8 6 8 18 7 18 7 6M9 6 12 6 12 18 9 18 9 6M13 6 14 6 14 18 13 18 13 6M16 6 18 6 18 18 16 18 16 6M19 6 20 6 20 18 19 18 19 6M2 4 2 8 0 8 0 4C-4.44089e-16 2.89543 0.895431 2 2 2L6 2 6 4 2 4M22 2C23.1046 2 24 2.89543 24 4L24 8 22 8 22 4 18 4 18 2 22 2M2 16 2 20 6 20 6 22 2 22C0.895431 22 -2.22045e-16 21.1046 -2.22045e-16 20L0 16 2 16M22 20 22 16 24 16 24 20C24 21.1046 23.1046 22 22 22L18 22 18 20 22 20Z" fill="#D9D9D9"/></svg>