<svg viewBox="0 0 24 24" xmlns="http://www.w3.org/2000/svg" xmlns:xlink="http://www.w3.org/1999/xlink" overflow="hidden"><path d="M17 18C18.1046 18 19 18.8954 19 20 19 21.1046 18.1046 22 17 22 15.89 22 15 21.1 15 20 15 18.89 15.89 18 17 18M1 2 4.27 2 5.21 4 20 4C20.5523 4 21 4.44772 21 5 21 5.17 20.95 5.34 20.88 5.5L17.3 11.97C16.96 12.58 16.3 13 15.55 13L8.1 13 7.2 14.63 7.17 14.75C7.17 14.8881 7.28193 15 7.42 15L19 15 19 17 7 17C5.89 17 5 16.1 5 15 5 14.65 5.09 14.32 5.24 14.04L6.6 11.59 3 4 1 4 1 2M7 18C8.10457 18 9 18.8954 9 20 9 21.1046 8.10457 22 7 22 5.89 22 5 21.1 5 20 5 18.89 5.89 18 7 18M16 11 18.78 6 6.14 6 8.5 11 16 11Z" fill="#D9D9D9"/></svg>