<svg viewBox="0 0 24 24" xmlns="http://www.w3.org/2000/svg" xmlns:xlink="http://www.w3.org/1999/xlink" overflow="hidden"><path d="M17.9 17.39C17.64 16.59 16.89 16 16 16L15 16 15 13C15 12.4477 14.5523 12 14 12L8 12 8 10 10 10C10.5523 10 11 9.55229 11 9L11 7 13 7C14.1046 7 15 6.10457 15 5L15 4.59C17.93 5.77 20 8.64 20 12 20 14.08 19.2 15.97 17.9 17.39M11 19.93C7.05 19.44 4 16.08 4 12 4 11.38 4.08 10.78 4.21 10.21L9 15 9 16C9 17.1046 9.89543 18 11 18M12 2C6.47715 2 2 6.47715 2 12 2 17.5228 6.47715 22 12 22 17.5228 22 22 17.5228 22 12 22 6.47715 17.5228 2 12 2Z" fill="#D9D9D9"/></svg>