<svg viewBox="0 0 24 24" xmlns="http://www.w3.org/2000/svg" xmlns:xlink="http://www.w3.org/1999/xlink" overflow="hidden"><path d="M4 3 20 3C21.1046 3 22 3.89543 22 5L22 20C22 21.1046 21.1046 22 20 22L4 22C2.89543 22 2 21.1046 2 20L2 5C2 3.89543 2.89543 3 4 3M4 7 4 10 8 10 8 7 4 7M10 7 10 10 14 10 14 7 10 7M20 10 20 7 16 7 16 10 20 10M4 12 4 15 8 15 8 12 4 12M4 20 8 20 8 17 4 17 4 20M10 12 10 15 14 15 14 12 10 12M10 20 14 20 14 17 10 17 10 20M20 20 20 17 16 17 16 20 20 20M20 12 16 12 16 15 20 15 20 12Z" fill="#D9D9D9"/></svg>