<svg viewBox="0 0 24 24" xmlns="http://www.w3.org/2000/svg" xmlns:xlink="http://www.w3.org/1999/xlink" overflow="hidden"><path d="M12 2C6.47715 2 2 6.47715 2 12 2 17.5228 6.47715 22 12 22 17.5228 22 22 17.5228 22 12 22 10.84 21.79 9.69 21.39 8.61L19.79 10.21C19.93 10.8 20 11.4 20 12 20 16.4183 16.4183 20 12 20 7.58172 20 4 16.4183 4 12 4 7.58172 7.58172 4 12 4 12.6 4 13.2 4.07 13.79 4.21L15.4 2.6C14.31 2.21 13.16 2 12 2M19 2 15 6 15 7.5 12.45 10.05C12.3 10 12.15 10 12 10 10.8954 10 10 10.8954 10 12 10 13.1046 10.8954 14 12 14 13.1046 14 14 13.1046 14 12 14 11.85 14 11.7 13.95 11.55L16.5 9 18 9 22 5 19 5 19 2M12 6C8.68629 6 6 8.68629 6 12 6 15.3137 8.68629 18 12 18 15.3137 18 18 15.3137 18 12L16 12C16 14.2091 14.2091 16 12 16 9.79086 16 8 14.2091 8 12 8 9.79086 9.79086 8 12 8L12 6Z" fill="#D9D9D9"/></svg>