<svg viewBox="0 0 24 24" xmlns="http://www.w3.org/2000/svg" xmlns:xlink="http://www.w3.org/1999/xlink" overflow="hidden"><path d="M12 4C14.2091 4 16 5.79086 16 8 16 10.2091 14.2091 12 12 12 9.79086 12 8 10.2091 8 8 8 5.79086 9.79086 4 12 4M12 6C10.8954 6 10 6.89543 10 8 10 9.10457 10.8954 10 12 10 13.1046 10 14 9.10457 14 8 14 6.89543 13.1046 6 12 6M12 13C14.67 13 20 14.33 20 17L20 20 4 20 4 17C4 14.33 9.33 13 12 13M12 14.9C9.03 14.9 5.9 16.36 5.9 17L5.9 18.1 18.1 18.1 18.1 17C18.1 16.36 14.97 14.9 12 14.9Z" fill="#D9D9D9"/></svg>