<svg viewBox="0 0 24 24" xmlns="http://www.w3.org/2000/svg" xmlns:xlink="http://www.w3.org/1999/xlink" overflow="hidden"><path d="M16 17 16 19 2 19 2 17C2 17 2 13 9 13 16 13 16 17 16 17M12.5 7.5C12.5 5.567 10.933 4 9 4 7.067 4 5.5 5.567 5.5 7.5 5.5 9.433 7.067 11 9 11 10.933 11 12.5 9.433 12.5 7.5M15.94 13C17.1844 13.9631 17.9387 15.4276 18 17L18 19 22 19 22 17C22 17 22 13.37 15.94 13M15 4C14.3117 3.99617 13.6385 4.20196 13.07 4.59 14.3154 6.33012 14.3154 8.66988 13.07 10.41 13.6385 10.798 14.3117 11.0038 15 11 16.933 11 18.5 9.433 18.5 7.5 18.5 5.567 16.933 4 15 4Z" fill="#D9D9D9"/></svg>