<svg viewBox="0 0 24 24" xmlns="http://www.w3.org/2000/svg" xmlns:xlink="http://www.w3.org/1999/xlink" overflow="hidden"><path d="M23 12 20.6 9.2 20.9 5.5 17.3 4.7 15.4 1.5 12 3 8.6 1.5 6.7 4.7 3.1 5.5 3.4 9.2 1 12 3.4 14.8 3.1 18.5 6.7 19.3 8.6 22.5 12 21 15.4 22.5 17.3 19.3 20.9 18.5 20.6 14.8 23 12M18.7 16.9 16 17.5 14.6 19.9 12 18.8 9.4 19.9 8 17.5 5.3 16.9 5.5 14.1 3.7 12 5.5 9.9 5.3 7.1 8 6.5 9.4 4.1 12 5.2 14.6 4.1 16 6.5 18.7 7.1 18.5 9.9 20.3 12 18.5 14.1 18.7 16.9M16.6 7.6 18 9 10 17 6 13 7.4 11.6 10 14.2 16.6 7.6Z" fill="#D9D9D9"/></svg>