<svg viewBox="0 0 24 24" xmlns="http://www.w3.org/2000/svg" xmlns:xlink="http://www.w3.org/1999/xlink" overflow="hidden"><path d="M17 18C15.89 18 15 18.89 15 20 15 21.1046 15.8954 22 17 22 18.1046 22 19 21.1046 19 20 19 18.89 18.1 18 17 18M1 2 1 4 3 4 6.6 11.59 5.24 14.04C5.09 14.32 5 14.65 5 15 5 16.1046 5.89543 17 7 17L19 17 19 15 7.42 15C7.28193 15 7.17 14.8881 7.17 14.75 7.17 14.7 7.18 14.66 7.2 14.63L8.1 13 15.55 13C16.3 13 16.96 12.58 17.3 11.97L20.88 5.5C20.95 5.34 21 5.17 21 5 21 4.44772 20.5523 4 20 4L5.21 4 4.27 2M7 18C5.89 18 5 18.89 5 20 5 21.1046 5.89543 22 7 22 8.10457 22 9 21.1046 9 20 9 18.89 8.1 18 7 18Z" fill="#D9D9D9"/></svg>