<svg viewBox="0 0 24 24" xmlns="http://www.w3.org/2000/svg" xmlns:xlink="http://www.w3.org/1999/xlink" overflow="hidden"><path d="M3 14 3.5 14.07 8.07 9.5C7.89 8.85 8.06 8.11 8.59 7.59 9.37 6.8 10.63 6.8 11.41 7.59 11.94 8.11 12.11 8.85 11.93 9.5L14.5 12.07 15 12C15.18 12 15.35 12 15.5 12.07L19.07 8.5C19 8.35 19 8.18 19 8 19 6.89543 19.8954 6 21 6 22.1046 6 23 6.89543 23 8 23 9.10457 22.1046 10 21 10 20.82 10 20.65 10 20.5 9.93L16.93 13.5C17 13.65 17 13.82 17 14 17 15.1046 16.1046 16 15 16 13.8954 16 13 15.1046 13 14L13.07 13.5 10.5 10.93C10.18 11 9.82 11 9.5 10.93L4.93 15.5 5 16C5 17.1046 4.10457 18 3 18 1.89543 18 1 17.1046 1 16 1 14.8954 1.89543 14 3 14Z" fill="#F2F2F2"/></svg>