<svg viewBox="0 0 24 24" xmlns="http://www.w3.org/2000/svg" xmlns:xlink="http://www.w3.org/1999/xlink" overflow="hidden"><path d="M17.75 4.09 15.22 6.03 16.13 9.09 13.5 7.28 10.87 9.09 11.78 6.03 9.25 4.09 12.44 4 13.5 1 14.56 4 17.75 4.09M21.25 11 19.61 12.25 20.2 14.23 18.5 13.06 16.8 14.23 17.39 12.25 15.75 11 17.81 10.95 18.5 9 19.19 10.95 21.25 11M18.97 15.95C19.8 15.87 20.69 17.05 20.16 17.8 19.84 18.25 19.5 18.67 19.08 19.07 15.17 23 8.84 23 4.94 19.07 1.03 15.17 1.03 8.83 4.94 4.93 5.34 4.53 5.76 4.17 6.21 3.85 6.96 3.32 8.14 4.21 8.06 5.04 7.79 7.9 8.75 10.87 10.95 13.06 13.14 15.26 16.1 16.22 18.97 15.95M17.33 17.97C14.5 17.81 11.7 16.64 9.53 14.5 7.36 12.31 6.2 9.5 6.04 6.68 3.23 9.82 3.34 14.64 6.35 17.66 9.37 20.67 14.19 20.78 17.33 17.97Z" fill="#D9D9D9"/></svg>