<svg viewBox="0 0 24 24" xmlns="http://www.w3.org/2000/svg" xmlns:xlink="http://www.w3.org/1999/xlink" overflow="hidden"><path d="M5.5 7C4.67157 7 4 6.32843 4 5.5 4 4.67157 4.67157 4 5.5 4 6.32843 4 7 4.67157 7 5.5 7 6.32843 6.32843 7 5.5 7M21.41 11.58 12.41 2.58C12.05 2.22 11.55 2 11 2L4 2C2.89 2 2 2.89 2 4L2 11C2 11.55 2.22 12.05 2.59 12.41L11.58 21.41C11.95 21.77 12.45 22 13 22 13.55 22 14.05 21.77 14.41 21.41L21.41 14.41C21.78 14.05 22 13.55 22 13 22 12.44 21.77 11.94 21.41 11.58Z" fill="#D9D9D9"/></svg>