<svg viewBox="0 0 24 24" xmlns="http://www.w3.org/2000/svg" xmlns:xlink="http://www.w3.org/1999/xlink" overflow="hidden"><path d="M7.8 2 16.2 2C19.4 2 22 4.6 22 7.8L22 16.2C22 19.4033 19.4033 22 16.2 22L7.8 22C4.6 22 2 19.4 2 16.2L2 7.8C2 4.59675 4.59675 2 7.8 2M7.6 4C5.61177 4 4 5.61177 4 7.6L4 16.4C4 18.39 5.61 20 7.6 20L16.4 20C18.3882 20 20 18.3882 20 16.4L20 7.6C20 5.61 18.39 4 16.4 4L7.6 4M17.25 5.5C17.9404 5.5 18.5 6.05964 18.5 6.75 18.5 7.44036 17.9404 8 17.25 8 16.5596 8 16 7.44036 16 6.75 16 6.05964 16.5596 5.5 17.25 5.5M12 7C14.7614 7 17 9.23858 17 12 17 14.7614 14.7614 17 12 17 9.23858 17 7 14.7614 7 12 7 9.23858 9.23858 7 12 7M12 9C10.3431 9 9 10.3431 9 12 9 13.6569 10.3431 15 12 15 13.6569 15 15 13.6569 15 12 15 10.3431 13.6569 9 12 9Z" fill="#FFFFFF"/></svg>