<svg viewBox="0 0 24 24" xmlns="http://www.w3.org/2000/svg" xmlns:xlink="http://www.w3.org/1999/xlink" overflow="hidden"><path d="M15.07 11.25 14.17 12.17C13.45 12.89 13 13.5 13 15L11 15 11 14.5C11 13.39 11.45 12.39 12.17 11.67L13.41 10.41C13.78 10.05 14 9.55 14 9 14 7.89 13.1 7 12 7 10.8954 7 10 7.89543 10 9L8 9C8 6.79086 9.79086 5 12 5 14.2091 5 16 6.79086 16 9 16 9.88 15.64 10.67 15.07 11.25M13 19 11 19 11 17 13 17M12 2C6.47715 2 2 6.47715 2 12 2 17.5228 6.47715 22 12 22 17.5228 22 22 17.5228 22 12 22 6.47 17.5 2 12 2Z" fill="#FFFFFF"/></svg>