<svg viewBox="0 0 24 24" xmlns="http://www.w3.org/2000/svg" xmlns:xlink="http://www.w3.org/1999/xlink" overflow="hidden"><path d="M18 8C19.1046 8 20 8.89543 20 10L20 20C20 21.1046 19.1046 22 18 22L6 22C4.89 22 4 21.1 4 20L4 10C4 8.89543 4.89543 8 6 8L15 8 15 6C15 4.34315 13.6569 3 12 3 10.3431 3 9 4.34315 9 6L7 6C7 3.23858 9.23858 1 12 1 14.7614 1 17 3.23858 17 6L17 8 18 8M12 17C13.1046 17 14 16.1046 14 15 14 13.8954 13.1046 13 12 13 10.8954 13 10 13.8954 10 15 10 16.1046 10.8954 17 12 17Z" fill="#FFFFFF"/></svg>