<svg viewBox="0 0 24 24" xmlns="http://www.w3.org/2000/svg" xmlns:xlink="http://www.w3.org/1999/xlink" overflow="hidden"><path d="M4 4 7 4 9 2 15 2 17 4 20 4C21.1046 4 22 4.89543 22 6L22 18C22 19.1046 21.1046 20 20 20L4 20C2.89543 20 2 19.1046 2 18L2 6C2 4.89543 2.89543 4 4 4M12 7C9.23858 7 7 9.23858 7 12 7 14.7614 9.23858 17 12 17 14.7614 17 17 14.7614 17 12 17 9.23858 14.7614 7 12 7M12 9C13.6569 9 15 10.3431 15 12 15 13.6569 13.6569 15 12 15 10.3431 15 9 13.6569 9 12 9 10.3431 10.3431 9 12 9Z" fill="#FFFFFF"/></svg>