<svg viewBox="0 0 24 24" xmlns="http://www.w3.org/2000/svg" xmlns:xlink="http://www.w3.org/1999/xlink" overflow="hidden"><path d="M12 7C14.7614 7 17 9.23858 17 12 17 14.7614 14.7614 17 12 17 9.23858 17 7 14.7614 7 12 7 9.23858 9.23858 7 12 7M12 9C10.3431 9 9 10.3431 9 12 9 13.6569 10.3431 15 12 15 13.6569 15 15 13.6569 15 12 15 10.3431 13.6569 9 12 9M12 2 14.39 5.42C13.65 5.15 12.84 5 12 5 11.16 5 10.35 5.15 9.61 5.42L12 2M3.34 7 7.5 6.65C6.9 7.16 6.36 7.78 5.94 8.5 5.5 9.24 5.25 10 5.11 10.79L3.34 7M3.36 17 5.12 13.23C5.26 14 5.53 14.78 5.95 15.5 6.37 16.24 6.91 16.86 7.5 17.37L3.36 17M20.65 7 18.88 10.79C18.74 10 18.47 9.23 18.05 8.5 17.63 7.78 17.1 7.15 16.5 6.64L20.65 7M20.64 17 16.5 17.36C17.09 16.85 17.62 16.22 18.04 15.5 18.46 14.77 18.73 14 18.87 13.21L20.64 17M12 22 9.59 18.56C10.33 18.83 11.14 19 12 19 12.82 19 13.63 18.83 14.37 18.56L12 22Z" fill="#FFFFFF"/></svg>