<svg viewBox="0 0 24 24" xmlns="http://www.w3.org/2000/svg" xmlns:xlink="http://www.w3.org/1999/xlink" overflow="hidden"><path d="M15.19 21C14.12 19.43 13 17.36 13 15.5 13 13.67 13.96 12 15.4 11L15 11 15 9 17 9 17 10.23C17.5 10.09 18 10 18.5 10 18.67 10 18.84 10 19 10.03L19 3 5 3 5 21 11 21 11 17.5 13 17.5 13 21 15.19 21M15 5 17 5 17 7 15 7 15 5M9 19 7 19 7 17 9 17 9 19M9 15 7 15 7 13 9 13 9 15M9 11 7 11 7 9 9 9 9 11M9 7 7 7 7 5 9 5 9 7M11 5 13 5 13 7 11 7 11 5M11 9 13 9 13 11 11 11 11 9M11 15 11 13 13 13 13 15 11 15M18.5 12C16.6 12 15 13.61 15 15.5 15 18.11 18.5 22 18.5 22 18.5 22 22 18.11 22 15.5 22 13.61 20.4 12 18.5 12M18.5 16.81C17.8 16.81 17.3 16.21 17.3 15.61 17.3 14.91 17.9 14.41 18.5 14.41 19.1 14.41 19.7 15 19.7 15.61 19.8 16.21 19.2 16.81 18.5 16.81Z" fill="#FFFFFF"/></svg>