<svg viewBox="0 0 24 24" xmlns="http://www.w3.org/2000/svg" xmlns:xlink="http://www.w3.org/1999/xlink" overflow="hidden"><path d="M12 3C7.58 3 4 4.79 4 7L4 17C4 19.21 7.59 21 12 21 16.41 21 20 19.21 20 17L20 7C20 4.79 16.42 3 12 3M18 17C18 17.5 15.87 19 12 19 8.13 19 6 17.5 6 17L6 14.77C7.61 15.55 9.72 16 12 16 14.28 16 16.39 15.55 18 14.77L18 17M18 12.45C16.7 13.4 14.42 14 12 14 9.58 14 7.3 13.4 6 12.45L6 9.64C7.47 10.47 9.61 11 12 11 14.39 11 16.53 10.47 18 9.64L18 12.45M12 9C8.13 9 6 7.5 6 7 6 6.5 8.13 5 12 5 15.87 5 18 6.5 18 7 18 7.5 15.87 9 12 9Z" fill="#FFFFFF"/></svg>