<svg viewBox="0 0 24 24" xmlns="http://www.w3.org/2000/svg" xmlns:xlink="http://www.w3.org/1999/xlink" overflow="hidden"><path d="M12 2C6.47715 2 2 6.47715 2 12 2 17.5228 6.47715 22 12 22 17.5228 22 22 17.5228 22 12 22 6.47715 17.5228 2 12 2M18 11 13 11 14.81 9.19C14.0712 8.43198 13.0585 8.00311 12 8 9.79087 7.99283 7.99421 9.77787 7.98704 11.987 7.97988 14.1961 9.76492 15.9928 11.974 16 13.8029 16.0059 15.4028 14.7707 15.86 13L17.91 13C17.3577 16.2674 14.2613 18.4684 10.9939 17.9161 7.72656 17.3638 5.52555 14.2674 6.07784 11 6.5662 8.11086 9.06989 5.99703 12 6 13.5887 6.002 15.1098 6.64357 16.22 7.78L18 6Z" fill="#FFFFFF"/></svg>