<svg viewBox="0 0 24 24" xmlns="http://www.w3.org/2000/svg" xmlns:xlink="http://www.w3.org/1999/xlink" overflow="hidden"><path d="M21.41 11.58 12.41 2.58C12.035 2.20808 11.5281 1.99958 11 2L4 2C2.89543 2 2 2.89543 2 4L2 11C1.99958 11.533 2.21196 12.0442 2.59 12.42L11.59 21.42C11.965 21.7919 12.4719 22.0004 13 22 13.5296 21.9978 14.0366 21.7856 14.41 21.41L21.41 14.41C21.7856 14.0366 21.9978 13.5296 22 13 22.0004 12.467 21.788 11.9558 21.41 11.58M13 20 4 11 4 4 11 4 20 13M6.5 5C7.32843 5 8 5.67157 8 6.5 8 7.32843 7.32843 8 6.5 8 5.67157 8 5 7.32843 5 6.5 5 5.67157 5.67157 5 6.5 5Z" fill="#FFFFFF"/></svg>