<svg viewBox="0 0 24 24" xmlns="http://www.w3.org/2000/svg" xmlns:xlink="http://www.w3.org/1999/xlink" overflow="hidden"><path d="M12 2C15.866 2 19 5.13401 19 9 19 11.38 17.81 13.47 16 14.74L16 17C16 17.5523 15.5523 18 15 18L9 18C8.44771 18 8 17.5523 8 17L8 14.74C6.19 13.47 5 11.38 5 9 5 5.13401 8.13401 2 12 2M9 21 9 20 15 20 15 21C15 21.5523 14.5523 22 14 22L10 22C9.44771 22 9 21.5523 9 21M12 4C9.23858 4 7 6.23858 7 9 7 11.05 8.23 12.81 10 13.58L10 16 14 16 14 13.58C15.77 12.81 17 11.05 17 9 17 6.23858 14.7614 4 12 4Z" fill="#FFFFFF"/></svg>