<svg viewBox="0 0 24 24" xmlns="http://www.w3.org/2000/svg" xmlns:xlink="http://www.w3.org/1999/xlink" overflow="hidden"><path d="M19 3C20.1046 3 21 3.89543 21 5L21 19C21 20.1046 20.1046 21 19 21L5 21C3.89543 21 3 20.1046 3 19L3 5C3 3.89543 3.89543 3 5 3L19 3M18.5 18.5 18.5 13.2C18.5 11.3996 17.0404 9.94 15.24 9.94 14.39 9.94 13.4 10.46 12.92 11.24L12.92 10.13 10.13 10.13 10.13 18.5 12.92 18.5 12.92 13.57C12.92 12.8 13.54 12.17 14.31 12.17 15.0832 12.17 15.71 12.7968 15.71 13.57L15.71 18.5 18.5 18.5M6.88 8.56C7.80784 8.56 8.56 7.80784 8.56 6.88 8.56 5.95 7.81 5.19 6.88 5.19 5.94664 5.19 5.19 5.94664 5.19 6.88 5.19 7.81 5.95 8.56 6.88 8.56M8.27 18.5 8.27 10.13 5.5 10.13 5.5 18.5 8.27 18.5Z" fill="#FFFFFF"/></svg>