<svg viewBox="0 0 24 24" xmlns="http://www.w3.org/2000/svg" xmlns:xlink="http://www.w3.org/1999/xlink" overflow="hidden"><path d="M12 2.04C6.5 2.04 2 6.53 2 12.06 2 17.06 5.66 21.21 10.44 21.96L10.44 14.96 7.9 14.96 7.9 12.06 10.44 12.06 10.44 9.85C10.44 7.34 11.93 5.96 14.22 5.96 15.31 5.96 16.45 6.15 16.45 6.15L16.45 8.62 15.19 8.62C13.95 8.62 13.56 9.39 13.56 10.18L13.56 12.06 16.34 12.06 15.89 14.96 13.56 14.96 13.56 21.96C18.4288 21.1911 22.0111 16.9891 22 12.06 22 6.53 17.5 2.04 12 2.04Z" stroke-width="0.250003" fill="#FFFFFF"/></svg>