<svg viewBox="0 0 24 24" xmlns="http://www.w3.org/2000/svg" xmlns:xlink="http://www.w3.org/1999/xlink" overflow="hidden"><path d="M7 11 9 11 9 13 7 13 7 11M21 5 21 19C21 20.11 20.11 21 19 21L5 21C3.89 21 3 20.1 3 19L3 5C3 3.9 3.9 3 5 3L6 3 6 1 8 1 8 3 16 3 16 1 18 1 18 3 19 3C20.11 3 21 3.9 21 5M5 7 19 7 19 5 5 5 5 7M19 19 19 9 5 9 5 19 19 19M15 13 15 11 17 11 17 13 15 13M11 13 11 11 13 11 13 13 11 13M7 15 9 15 9 17 7 17 7 15M15 17 15 15 17 15 17 17 15 17M11 17 11 15 13 15 13 17 11 17Z" fill="#FFFFFF"/></svg>