<svg viewBox="0 0 24 24" xmlns="http://www.w3.org/2000/svg" xmlns:xlink="http://www.w3.org/1999/xlink" overflow="hidden"><path d="M9 10 9 12 7 12 7 10 9 10M13 10 13 12 11 12 11 10 13 10M17 10 17 12 15 12 15 10 17 10M19 3C20.1046 3 21 3.89543 21 5L21 19C21 20.1046 20.1046 21 19 21L5 21C3.89 21 3 20.1 3 19L3 5C3 3.89543 3.89543 3 5 3L6 3 6 1 8 1 8 3 16 3 16 1 18 1 18 3 19 3M19 19 19 8 5 8 5 19 19 19M9 14 9 16 7 16 7 14 9 14M13 14 13 16 11 16 11 14 13 14M17 14 17 16 15 16 15 14 17 14Z" fill="#FFFFFF"/></svg>