<svg viewBox="0 0 24 24" xmlns="http://www.w3.org/2000/svg" xmlns:xlink="http://www.w3.org/1999/xlink" overflow="hidden"><path d="M3.55 19.09 4.96 20.5 6.76 18.71 5.34 17.29M12 6C8.69 6 6 8.69 6 12 6 15.31 8.69 18 12 18 15.31 18 18 15.31 18 12 18 8.68 15.31 6 12 6M20 13 23 13 23 11 20 11M17.24 18.71 19.04 20.5 20.45 19.09 18.66 17.29M20.45 5 19.04 3.6 17.24 5.39 18.66 6.81M13 1 11 1 11 4 13 4M6.76 5.39 4.96 3.6 3.55 5 5.34 6.81 6.76 5.39M1 13 4 13 4 11 1 11M13 20 11 20 11 23 13 23" fill="#FFFFFF"/></svg>