<svg viewBox="0 0 24 24" xmlns="http://www.w3.org/2000/svg" xmlns:xlink="http://www.w3.org/1999/xlink" overflow="hidden"><path d="M11 18 13 18 13 16 11 16 11 18M12 2C6.47715 2 2 6.47715 2 12 2 17.5228 6.47715 22 12 22 17.5228 22 22 17.5228 22 12 22 6.47715 17.5228 2 12 2M12 20C7.59 20 4 16.41 4 12 4 7.59 7.59 4 12 4 16.41 4 20 7.59 20 12 20 16.41 16.41 20 12 20M12 6C9.79086 6 8 7.79086 8 10L10 10C10 8.89543 10.8954 8 12 8 13.1046 8 14 8.89543 14 10 14 12 11 11.75 11 15L13 15C13 12.75 16 12.5 16 10 16 7.79086 14.2091 6 12 6Z" fill="#A6A6A6"/></svg>