<svg viewBox="0 0 24 24" xmlns="http://www.w3.org/2000/svg" xmlns:xlink="http://www.w3.org/1999/xlink" overflow="hidden"><path d="M15 9 17 9 17 11 15 11 15 9M17 5 15 5 15 7 17 7 17 5M11 15 13 15 13 13 11 13 11 15M13 5 11 5 11 7 13 7 13 5M11 11 13 11 13 9 11 9 11 11M9 5 7 5 7 7 9 7 9 5M9 9 7 9 7 11 9 11 9 9M14.55 21 13 21 13 17.5 11 17.5 11 21 5 21 5 3 19 3 19 11.03C19.71 11.09 20.39 11.31 21 11.63L21 1 3 1 3 23 15.91 23C15.5 22.44 15 21.76 14.55 21M7 19 9 19 9 17 7 17 7 19M9 13 7 13 7 15 9 15 9 13M22 16.5C22 19.1 18.5 23 18.5 23 18.5 23 15 19.1 15 16.5 15 14.6 16.6 13 18.5 13 20.4 13 22 14.6 22 16.5M19.7 16.6C19.7 16 19.1 15.4 18.5 15.4 17.9 15.4 17.3 15.9 17.3 16.6 17.3 17.2 17.8 17.8 18.5 17.8 19.2 17.8 19.8 17.2 19.7 16.6Z" fill="#A6A6A6"/></svg>