<svg viewBox="0 0 24 24" xmlns="http://www.w3.org/2000/svg" xmlns:xlink="http://www.w3.org/1999/xlink" overflow="hidden"><path d="M5.06 3C4.63 3 4.22 3.14 3.84 3.42 3.46 3.7 3.24 4.06 3.14 4.5L2.11 8.91C1.86 10 2.06 10.95 2.72 11.77L3 12.05 3 19C3 19.5 3.2 20 3.61 20.39 4.02 20.78 4.5 21 5 21L19 21C19.5 21 20 20.8 20.39 20.39 20.78 19.98 21 19.5 21 19L21 12.05 21.28 11.77C21.94 10.95 22.14 10 21.89 8.91L20.86 4.5C20.73 4.06 20.5 3.7 20.13 3.42 19.77 3.14 19.38 3 18.94 3L5.06 3M18.89 4.97 19.97 9.38C20.06 9.81 19.97 10.2 19.69 10.55 19.44 10.86 19.13 11 18.75 11 18.44 11 18.17 10.9 17.95 10.66 17.73 10.43 17.61 10.16 17.58 9.84L16.97 5 18.89 4.97M5.06 5 7.03 5 6.42 9.84C6.3 10.63 5.91 11 5.25 11 4.84 11 4.53 10.86 4.31 10.55 4.03 10.2 3.94 9.81 4.03 9.38L5.06 5M9.05 5 11 5 11 9.7C11 10.05 10.89 10.35 10.64 10.62 10.39 10.88 10.08 11 9.7 11 9.36 11 9.07 10.88 8.84 10.59 8.61 10.3 8.5 10 8.5 9.66L8.5 9.5 9.05 5M13 5 14.95 5 15.5 9.5C15.58 9.92 15.5 10.27 15.21 10.57 14.95 10.87 14.61 11 14.2 11 13.89 11 13.61 10.88 13.36 10.62 13.11 10.35 13 10.05 13 9.7L13 5M7.45 12.05C8.08 12.67 8.86 13 9.8 13 10.64 13 11.38 12.67 12 12.05 12.69 12.67 13.45 13 14.3 13 15.17 13 15.92 12.67 16.55 12.05 17.11 12.67 17.86 13 18.8 13L19.03 13 19.03 19 5 19 5 13 5.25 13C6.16 13 6.89 12.67 7.45 12.05Z" fill="#A6A6A6"/></svg>