<svg viewBox="0 0 24 24" xmlns="http://www.w3.org/2000/svg" xmlns:xlink="http://www.w3.org/1999/xlink" overflow="hidden"><path d="M13.07 10.41C14.3154 8.66988 14.3154 6.33012 13.07 4.59 13.6385 4.20196 14.3117 3.99617 15 4 16.933 4 18.5 5.567 18.5 7.5 18.5 9.433 16.933 11 15 11 14.3117 11.0038 13.6385 10.798 13.07 10.41M5.5 7.5C5.5 5.567 7.067 4 9 4 10.933 4 12.5 5.567 12.5 7.5 12.5 9.433 10.933 11 9 11 7.067 11 5.5 9.433 5.5 7.5M7.5 7.5C7.5 8.32843 8.17157 9 9 9 9.82843 9 10.5 8.32843 10.5 7.5 10.5 6.67157 9.82843 6 9 6 8.17157 6 7.5 6.67157 7.5 7.5M16 17 16 19 2 19 2 17C2 17 2 13 9 13 16 13 16 17 16 17M14 17C13.86 16.22 12.67 15 9 15 5.33 15 4.07 16.31 4 17M15.95 13C17.1907 13.965 17.9411 15.4293 18 17L18 19 22 19 22 17C22 17 22 13.37 15.94 13Z" fill="#A6A6A6"/></svg>